<svg xmlns="http://www.w3.org/2000/svg" viewBox="0 0 1080 1080">
    <defs>
        <linearGradient id="grad" x1="0%" y1="0%" x2="100%" y2="100%">
            <stop offset="0%" style="stop-color:#FF0080;" />
            <stop offset="15%" style="stop-color:#FF8080;" />
            <stop offset="30%" style="stop-color:#FF4040;" />
            <stop offset="50%" style="stop-color:#FF80FF;" />
            <stop offset="70%" style="stop-color:#4040FF;" />
            <stop offset="85%" style="stop-color:#000080;" />
            <stop offset="100%" style="stop-color:#8000FF;" />
        </linearGradient>
    </defs>
    <path fill="url(#grad)" d="M599 10c-6 3-138 122-139 125l-65 386c0 8 35 161 27 550L599 10Zm59 0c-4 6-178 1050-178 1059 5-2 137-120 139-124 1-2 65-379 65-387 0-9-37-211-26-548ZM391 196 10 540c282-195 337-130 345-125l36-219Zm364 284c-1-1-67 403-67 403l381-344c-197 104-321 153-314-59Z"/>
</svg>