<svg xmlns="http://www.w3.org/2000/svg" viewBox="0 0 4096 4096"><path d="m2059 5 21 20 36 36 113 113 349 349 349 349 113 113 36 36 20 21H1968l-7 1c-4 1-13 11-16 14l-41 41-172 172-573 573-156 156-42 42c-3 3-15 14-16 17s3 6 5 8l16 16 69 69 246 246 60 60 15 15c2 2 4 5 7 4 2 0 15-10 18-12l44-32 166-120 264-191 261-188 156-113 43-31c6-4 15-12 22-14-4 9-22 33-29 42l-49 67-162 224-316 437-94 130-34 47-20 28 36 35 67 67 207 207 79 79 20 20c2 2 5 6 8 6s9-7 11-9l26-26 104-104 277-277 89-89 28-28 16-15 17-7 37-14 110-41 351-132 508-192 149-55 225-85 62-23c8-3 26-11 33-12-4 6-13 14-18 19l-30 30-95 95-294 294-912 912-473 473-147 147-45 45c-7 7-18 19-26 24v-457l-2-9-12-6-29-12-143-58-148-61-115-47-163-66-177-72-14 21-27 37-76 107-241 340-85 120-17 23c-6 9-6 14-18 14H143l25-26 47-47 144-144 448-448 169-169 42-42c3-3 14-13 14-16s-7-9-9-11l-26-26-105-105-276-276-90-90-48-49 19-18 32-32 100-100 309-309H5l25-26 47-47 145-145 448-448L2059 5Zm271 1775h-1l1 1v-1Zm-1 1h-1l1 1v-1Zm2610-125"/></svg>