<svg role="img" xmlns="http://www.w3.org/2000/svg" viewBox="0 0 8640 8640"><title>Cbrnex Logo</title><path  d="m4608 5272-32 492s348-608 348-604-316 112-316 112Zm1564-3032L8048 952l-572 48s316-144 312-144-1756-148-1744-148S4288 48 4292 48s288 340 288 340-800 216-804 224-1252 12-1252 12 532 324 532 328-976 720-972 716-464 936-464 936l-296-268s-184-380-188-380 240 1032 236 1036-148 1060-148 1060 44 576 40 576-196 836-196 836l-404 552 588-476 28 684s140 708 144 704 128-572 132-572 360 564 360 564-464 1352-472 1368 284-356 280-356 288-228 288-228l-264 604-272 284s1336-872 1340-872 88-252 88-252 148 152 144 152 24-248 24-248l1228 300-648 264 1388-192s632-304 628-300-212 484-212 484 1484-1008 1484-1004 48 104 48 104l-44 324 280-596s124 136 124 140-24-500-24-500l76-388s-212-816-212-812-492-332-488-332 184 308 184 308-32 400-36 392-204-140-204-144-52-304-52-304-352 800-352 804-536 444-524 452-1584-172-1580-180 48-144 52-144 244-156 244-156l84-544-204 80 592-1804S3620 4960 3620 4956s-500 216-500 212-112-576-116-564-232 684-232 676-124-104-120-104-120-816-116-800 1076-1892 1076-1892-696 276-696 284 80-180 80-172 492-476 492-476 1408-280 1404-276 1280 396 1280 396Zm508 188c4 0 500-700 500-700s724-444 724-440-376 672-376 672-852 468-848 468Z"/></svg>