<svg viewBox="0 0 24 24" xmlns="http://www.w3.org/2000/svg"><path d="M17.8 2.2v.06h.16v.44h.07v-.44h.16V2.2zm.9 0l-.17.35-.17-.35h-.09v.5h.07v-.4l.17.35h.04l.18-.35v.4h.06v-.5zm-4.25 1c-.2.3-.43.66-.66 1.06l-.04.06a44.46 44.46 0 0 0-1.27 2.29l-.57 1.14 2.26-.25c.66-.3.96-.57 1.24-.97a15.5 15.5 0 0 0 .23-.34 14.77 14.77 0 0 0 1.17-2.27 6.6 6.6 0 0 0 .3-1.05c-.88.15-1.96.3-2.67.33zm-2.56 4.58l-.07.16-.24.49-.26.55-.13.29a75.27 75.27 0 0 0-1.43 3.3l-.5 1.23-.44 1.16-.02.06-.45 1.22-.01.03.72-.08a.21.21 0 0 1-.05 0c.87-.11 2.01-.76 2.75-1.55.35-.37.66-.8.94-1.31a16.81 16.81 0 0 0 1.08-2.58c-.19.1-.41.18-.66.24a2.18 2.18 0 0 1-.28.04c.8-.3 1.32-.9 1.69-1.64a2.82 2.82 0 0 1-.97.43l-.18.03h-.04c.28-.11.52-.24.72-.4a2.57 2.57 0 0 0 .64-.7l.06-.1.08-.15a8.1 8.1 0 0 0 .36-.85l.03-.09a3.04 3.04 0 0 0 .13-.46.73.73 0 0 1-.1.06c-.24.15-.66.28-1 .34l.67-.07-.66.07h-.02l-.1.02h.02l-2.27.24-.01.02zm-3.62 8.67c-.12.32-.24.65-.35 1H7.9l-.05.15-.31.9c.26.12.47.43.68.8a1.44 1.44 0 0 0-.47-1c1.3.06 2.4-.27 2.99-1.22l.14-.26c-.26.33-.6.47-1.2.44.9-.4 1.35-.8 1.75-1.44.1-.15.19-.32.28-.5a2.82 2.82 0 0 1-2.66.87l-.72.07a6.43 6.43 0 0 0-.07.19zM15.42.11c-.38.22-1 .85-1.75 1.76l.69 1.3c.48-.69.97-1.3 1.46-1.84l.06-.06-.06.06c-.16.18-.64.74-1.37 1.87.7-.04 1.78-.18 2.66-.33.26-1.47-.26-2.15-.26-2.15s-.66-1.07-1.43-.6zm-3.08 6.4a40.25 40.25 0 0 1 1.3-2.26l.04-.06c.23-.35.45-.7.68-1.02l-.69-1.3-.15.2-.62.79a39.85 39.85 0 0 0-2.01 2.97l-.02.04.89 1.76.57-1.12zM8.6 14.83l.48-1.22.48-1.2a91.13 91.13 0 0 1 1.6-3.6l.2-.42.37-.72a.13.13 0 0 1 .02-.04l-.9-1.77-.04.07-.62 1.05a38.06 38.06 0 0 0-1.09 2.04l-.1.19a24.57 24.57 0 0 0-1.25 3.09 18.5 18.5 0 0 0-.52 2l.9 1.76.36-.96zm-1.38-.47A13.38 13.38 0 0 0 7 16.05v.06a3.58 3.58 0 0 0-1.03-.88c.53.77.94 1.55 1 2.3-.29.06-.68-.02-1.14-.19.48.44.83.56.97.59-.43.03-.89.33-1.35.67.67-.27 1.21-.38 1.6-.3-.61 1.75-1.23 3.66-1.84 5.7a.54.54 0 0 0 .36-.35c.11-.37.84-2.8 1.98-5.97l.1-.27.02-.08.38-1.02.09-.23-.9-1.78-.01.06z"/></svg>