<svg viewBox="0 0 24 24" xmlns="http://www.w3.org/2000/svg"><path d="M1.81 10.23c-.05 0-.06-.02-.03-.06l.24-.31c.03-.04.08-.06.13-.06h4.17c.05 0 .06.03.04.07l-.2.3c-.02.04-.08.07-.12.07zM.05 11.31c-.05 0-.06-.03-.04-.06l.25-.32c.02-.03.08-.06.13-.06H5.7c.05 0 .07.04.06.07l-.1.28c0 .05-.05.07-.1.07zm2.82 1.07c-.04 0-.05-.03-.03-.07l.16-.3c.03-.03.07-.06.12-.06h2.34c.04 0 .07.03.07.08l-.03.28c0 .05-.04.08-.08.08zM15 10.02l-1.96.51c-.17.05-.19.06-.34-.11-.17-.2-.3-.33-.55-.45a2.03 2.03 0 0 0-2.11.18c-.8.51-1.2 1.27-1.2 2.22.02.93.66 1.7 1.58 1.83.8.1 1.46-.17 1.99-.77l.32-.43h-2.26c-.24 0-.3-.15-.22-.35.15-.36.43-.97.6-1.27a.32.32 0 0 1 .29-.2h4.25c-.02.32-.02.64-.07.96a4.98 4.98 0 0 1-.96 2.29 4.86 4.86 0 0 1-3.33 1.98 4.14 4.14 0 0 1-3.14-.77 3.67 3.67 0 0 1-1.49-2.6 4.59 4.59 0 0 1 1-3.42 5.18 5.18 0 0 1 3.27-2.02c1.1-.2 2.15-.07 3.1.57.62.41 1.06.97 1.35 1.65.07.1.02.17-.12.2m3.87 6.46a4.39 4.39 0 0 1-2.85-1.03 3.67 3.67 0 0 1-1.26-2.25 4.46 4.46 0 0 1 .94-3.53 4.89 4.89 0 0 1 3.28-1.95c1.19-.21 2.31-.1 3.33.6.92.62 1.5 1.48 1.64 2.6a4.51 4.51 0 0 1-1.34 3.96 5.35 5.35 0 0 1-2.8 1.5c-.32.06-.63.07-.94.1zm2.78-4.72c0-.15 0-.27-.03-.38a1.93 1.93 0 0 0-2.39-1.56 2.55 2.55 0 0 0-2.04 2.03c-.21.92.23 1.84 1.07 2.21.65.28 1.29.25 1.9-.07a2.56 2.56 0 0 0 1.5-2.23z"/></svg>