<svg viewBox="0 0 24 24" xmlns="http://www.w3.org/2000/svg"><path d="M.38 10.38l-.27-.04c-.05.34-.08.7-.1 1.04l.27.02c.02-.34.05-.69.1-1.02zm3.76-7.1l-.19-.2c-.26.24-.5.48-.74.74l.2.19c.23-.25.47-.5.73-.72zm1.63-1.22l-.15-.24c-.3.19-.58.39-.86.6l.17.22c.27-.2.55-.4.84-.58zm-3.95 16.3c.19.3.39.6.6.87l.22-.16c-.2-.27-.4-.56-.58-.85l-.24.15zm-.7-1.96l-.25.1c.13.32.28.64.43.95l.25-.12c-.15-.3-.3-.62-.42-.93zM.3 9.3l.27.07c.07-.33.17-.66.27-.98l-.26-.1A12 12 0 0 0 .3 9.32zm-.03 3.12l-.27.01c.01.35.04.7.08 1.04l.28-.03c-.05-.34-.07-.68-.09-1.02zm-.01 2.09c.07.34.16.68.26 1.01l.26-.08c-.1-.33-.18-.66-.26-.99l-.26.06zM11.57.28V0c-.35.01-.7.04-1.05.08l.03.28c.34-.05.68-.07 1.02-.08zm11.65 8.29c.1.32.19.66.26.99l.27-.06c-.08-.34-.16-.68-.27-1.01l-.26.08zm-5.6-7.18c-.3-.16-.63-.31-.95-.45l-.1.25c.31.14.62.28.92.44l.13-.24zM15.7.57a13 13 0 0 0-1-.28l-.07.27c.33.08.66.17.99.28l.08-.27zm-9.02.97c.3-.15.61-.29.92-.41l-.1-.26c-.32.13-.64.28-.94.43h-.02l.13.25h.01zM23.73 11.6l.27-.01a11.8 11.8 0 0 0-.08-1.05l-.27.04c.04.33.06.68.08 1.02zM13.65.1c-.34-.05-.7-.08-1.04-.1l-.01.27c.34.02.68.05 1.02.1l.03-.27zm-4.1.42L9.48.26c-.34.07-.68.16-1.02.26l.08.26c.33-.1.66-.18 1-.25zM1.91 5.47l.23.15c.19-.29.39-.57.6-.83l-.22-.17c-.22.27-.42.56-.6.85zM.94 7.32l.26.1.43-.92-.24-.13c-.16.31-.31.63-.45.95zm17.28 14.62l.15.24c.3-.19.58-.39.86-.6l-.16-.22a12 12 0 0 1-.85.58zm3.03-2.72l.22.17c.21-.27.41-.56.6-.85l-.23-.15c-.18.28-.38.56-.6.83zm-1.4 1.5l.19.2c.26-.23.5-.48.75-.73l-.2-.2c-.24.26-.48.5-.74.73zm2.5-3.22l.25.13c.17-.3.32-.62.45-.94l-.25-.1a11.27 11.27 0 0 1-.44.91zm1.27-3.87l.27.04c.05-.35.08-.7.1-1.05h-.27c-.02.33-.05.67-.1 1zm-.46 2l.26.08c.1-.34.2-.67.28-1.01l-.27-.07c-.08.34-.17.67-.27 1zm-.7-8.96c.15.3.29.62.42.93l.25-.1c-.13-.32-.27-.64-.43-.95l-.25.12zM8.3 23.42c.33.1.67.2 1 .28l.07-.27a11.6 11.6 0 0 1-.99-.27l-.08.26zm2.04.47c.34.05.7.08 1.04.1l.01-.27c-.34-.02-.68-.05-1.02-.1l-.03.27zm6.99-1.44c-.3.15-.62.3-.93.42l.1.26c.32-.13.64-.28.95-.43l-.12-.25zM4.6 21.47c.28.21.56.41.86.6l.15-.23c-.29-.18-.57-.38-.84-.59l-.17.22zm7.8 2.26l.02.27c.34-.01.7-.04 1.04-.08l-.03-.28c-.34.05-.68.07-1.02.08zM6.38 22.6c.3.17.63.32.95.45l.1-.25c-.31-.13-.62-.28-.92-.44l-.13.24zm-3.29-2.56c.24.26.48.51.74.75l.19-.2a11.2 11.2 0 0 1-.72-.73l-.2.18zm11.37 3.44l.05.27a12 12 0 0 0 1.02-.27l-.08-.26c-.33.1-.66.18-1 .25zM21.18.13a2.69 2.69 0 1 0 0 5.38 2.69 2.69 0 1 0 0-5.38zm-5.86 15.32c0 .47.32.66.86.66.67 0 1.3-.4 1.3-1.02v-.64c-.24.1-.39.14-1.11.24-.74.1-1.05.3-1.05.76zM12 2.82a9.18 9.18 0 1 0 0 18.36 9.18 9.18 0 0 0 0-18.36zM9.51 16.59H5.77v-6.02h.77v5.34h2.97v.68zm4.13 0h-.62v-.67c-.4.57-.8.8-1.44.8-.84 0-1.38-.47-1.38-1.2v-3.26h.68v3c0 .52.35.85.9.85.72 0 1.18-.58 1.18-1.46v-2.4h.68v4.34zm-.53-8.4a2.69 2.69 0 1 1 5.38 0 2.69 2.69 0 0 1-5.38 0zm5.57 7.86v.52c-.22.06-.33.08-.47.08a.73.73 0 0 1-.71-.57c-.38.4-.92.63-1.47.63-.88 0-1.43-.46-1.43-1.25 0-.52.26-.91.77-1.12.26-.1.4-.14 1.38-.26.55-.07.72-.2.72-.48v-.18c0-.42-.34-.65-.96-.65-.65 0-.96.24-1.02.77h-.7c.05-1 .7-1.4 1.74-1.4 1.07 0 1.63.4 1.63 1.18v2.41c0 .22.13.34.37.34.04 0 .08 0 .15-.02z"/></svg>