<svg viewBox="0 0 24 24" xmlns="http://www.w3.org/2000/svg"><path d="M23.8 11.7l-1-.6a13.7 13.7 0 0 0 0-.3l.9-.8a.3.3 0 0 0-.2-.6l-1-.4a8.5 8.5 0 0 0-.1-.3l.6-1a.3.3 0 0 0-.2-.5L21.7 7a9.4 9.4 0 0 0-.2-.3l.5-1a.3.3 0 0 0 0-.4.3.3 0 0 0-.3-.1h-1.2a6.7 6.7 0 0 0-.2-.2l.3-1.2a.3.3 0 0 0-.4-.4l-1.2.3a14 14 0 0 0-.2-.2V2.3a.3.3 0 0 0-.5-.3l-1 .5-.3-.2-.2-1.1a.3.3 0 0 0-.5-.2l-1 .6a8.5 8.5 0 0 0-.3 0L14.6.5a.3.3 0 0 0-.6-.2l-.8.9a9.3 9.3 0 0 0-.3 0l-.6-1a.3.3 0 0 0-.6 0l-.6 1a13.7 13.7 0 0 0-.3 0L10 .3a.3.3 0 0 0-.6.2l-.4 1-.3.1-1-.6a.3.3 0 0 0-.5.2L7 2.3a9.4 9.4 0 0 0-.3.2l-1-.5a.3.3 0 0 0-.5.3v1.2a8 8 0 0 0-.2.2l-1.2-.3a.3.3 0 0 0-.4.4L3.7 5l-.2.2H2.3a.3.3 0 0 0-.3.5l.5 1a9.2 9.2 0 0 0-.2.3l-1.1.2a.3.3 0 0 0-.2.5l.6 1a13.3 13.3 0 0 0 0 .3l-1.1.4a.3.3 0 0 0-.2.6l.9.8a9.3 9.3 0 0 0 0 .3l-1 .6a.3.3 0 0 0 0 .6l1 .6v.3l-.9.8a.3.3 0 0 0 .2.6l1 .4.1.3-.6 1a.3.3 0 0 0 .2.5l1.1.2.2.2-.5 1.1a.3.3 0 0 0 .3.5h1.2l.2.2-.3 1.2a.3.3 0 0 0 .4.4l1.2-.3.2.2v1.2a.3.3 0 0 0 .5.3l1-.5.3.1.2 1.2a.3.3 0 0 0 .5.2l1-.6a9.3 9.3 0 0 0 .3 0l.4 1.1a.3.3 0 0 0 .6.2l.8-.9h.3l.6 1a.3.3 0 0 0 .6 0l.6-1h.3l.8.9a.3.3 0 0 0 .6-.2l.4-1a8.5 8.5 0 0 0 .3-.1l1 .6a.3.3 0 0 0 .5-.2l.2-1.2h.3l1 .4a.3.3 0 0 0 .5-.3v-1.2a6.7 6.7 0 0 0 .2-.2l1.2.3a.3.3 0 0 0 .4-.4l-.3-1.2.2-.2h1.2a.3.3 0 0 0 .3-.5l-.5-1 .2-.3 1.1-.2a.3.3 0 0 0 .2-.5l-.6-1V15l1.1-.4a.3.3 0 0 0 .2-.6l-.9-.8V13l1-.6a.3.3 0 0 0 0-.6zm-6.7 8.4a.7.7 0 0 1 .3-1.4.7.7 0 1 1-.3 1.4zm-.3-2.4a.6.6 0 0 0-.8.5l-.4 1.7c-1 .5-2.3.8-3.6.8a8.7 8.7 0 0 1-3.7-.8L8 18.2a.6.6 0 0 0-.8-.5l-1.5.3a8.7 8.7 0 0 1-.8-.9h7.3v-2.6H10v-1.7h2.3c.2 0 1 0 1.4 1.2L14 16c.1.4.7 1.2 1.3 1.2h3.5a.7.7 0 0 0 .2 0 8.8 8.8 0 0 1-.8 1zM6.8 20a.7.7 0 1 1-.3-1.4.7.7 0 0 1 .3 1.4zM4.1 9a.7.7 0 1 1-1.3.6.7.7 0 0 1 1.3-.6zm-.8 2l1.5-.7a.7.7 0 0 0 .3-.9l-.3-.7h1.3v5.6H3.6a8.8 8.8 0 0 1-.3-3.3zm6.7-.6V8.8h3c.1 0 1 .2 1 .9 0 .5-.7.7-1.2.7zM20.8 12v.7h-1v.5c0 1-.6 1.2-1.1 1.3-.5 0-1-.2-1-.5-.3-1.5-.8-1.8-1.5-2.4 1-.6 1.8-1.4 1.8-2.5 0-1.2-.8-2-1.3-2.3-.8-.5-1.7-.6-2-.6H5.6a8.8 8.8 0 0 1 4.9-2.8l1 1.2a.6.6 0 0 0 1 0l1.2-1.2a8.8 8.8 0 0 1 6 4.3l-.8 1.9a.7.7 0 0 0 .3.8l1.6.7v1zm-9.3-9.6a.7.7 0 1 1 1 1 .7.7 0 0 1-1-1zM19.8 9a.7.7 0 0 1 1-.3.7.7 0 1 1-1 .3z"/></svg>