<svg xmlns="http://www.w3.org/2000/svg" viewBox="0 0 24 24"><path d="M24 6.12a9.23 9.23 0 0 0-.25-2.19A4.92 4.92 0 0 0 21.57.9 5.02 5.02 0 0 0 19.7.16a10.5 10.5 0 0 0-1.57-.15H6c-.16 0-.3 0-.46.02a7 7 0 0 0-2.2.4A5 5 0 0 0 .12 4.62C.05 5 .02 5.4.01 5.8L0 5.89V18.1l.03.43c.05.81.15 1.62.5 2.37a4.98 4.98 0 0 0 3.23 2.8c.42.13.85.19 1.3.23.55.05 1.1.06 1.66.06h11.03a12.5 12.5 0 0 0 1.57-.1c.82-.1 1.6-.35 2.3-.81a5.05 5.05 0 0 0 1.87-2.2c.19-.43.3-.88.37-1.33.12-.68.14-1.36.14-2.04V6.12zm-6.43 4v5.7c0 .42-.06.83-.24 1.21-.3.6-.76.96-1.4 1.14-.34.1-.7.16-1.06.17-.95.05-1.77-.6-1.94-1.53a1.88 1.88 0 0 1 1.03-2.02c.33-.16.67-.25 1.02-.33l1.14-.24c.27-.06.45-.23.5-.51a.9.9 0 0 0 .03-.2V8.07a.72.72 0 0 0-.03-.18c-.04-.15-.15-.25-.3-.24-.17.01-.32.04-.48.07l-2.28.45-2.33.47-1.37.28-.05.01c-.27.08-.37.2-.39.5v7.93c0 .42-.05.84-.22 1.23a2.13 2.13 0 0 1-1.43 1.23c-.35.1-.71.16-1.07.17-.96.04-1.76-.6-1.92-1.54a1.87 1.87 0 0 1 1.15-2.08 5.9 5.9 0 0 1 1.1-.3l.87-.18c.38-.09.58-.33.6-.72V6.14c0-.12.01-.25.04-.37.07-.28.27-.45.55-.52l.77-.16 2.2-.45 2.27-.46 2.01-.4c.22-.04.44-.09.66-.1.31-.03.53.16.56.48l.01.22v5.73z"/></svg>