<svg xmlns="http://www.w3.org/2000/svg" viewBox="0 0 24 24"><path d="M22.67 22.88V24H1.33v-1.12zm-.85-1.67v1.4H2.19v-1.4zM4.24 6.14l.24.12.12 1.88.11 3.06v2.94L4.6 17.8l-.02 2.47-.34.1H3.06l-.35-.1-.14-2.47-.11-3.64v-2.94l.11-3.08.11-1.9.24-.1zm16.84 0 .24.12.12 1.88.11 3.06v2.94l-.11 3.66-.02 2.47-.34.1H19.9l-.35-.1-.14-2.47-.11-3.64v-2.94l.11-3.08.11-1.9.25-.1zm-11.79 0 .24.12.12 1.88.11 3.06v2.94l-.11 3.66-.02 2.47-.33.1H8.1l-.35-.1-.13-2.47-.12-3.64v-2.94l.12-3.08.1-1.9.25-.1zm6.46 0 .24.12.11 1.88.12 3.06v2.94l-.12 3.66-.02 2.47-.33.1h-1.17l-.35-.1-.14-2.47-.11-3.64v-2.94l.11-3.08.11-1.9.24-.1zm6.09-2.51v1.95H2.18V3.63zM11.8 0l10.3 2.35-.4.72H1.94l-.62-.59Z"/></svg>