<svg xmlns="http://www.w3.org/2000/svg" width="16" height="16"><path d="M8 0a8.2 8.2 0 0 1 .7.03C9.44.1 10 .64 10.16 1.3l.29 1.1c.02.07.08.17.21.23.23.12.45.24.67.39.12.08.23.09.3.07l1.1-.3c.64-.18 1.4.02 1.82.63.27.38.5.79.7 1.21.32.68.11 1.43-.36 1.9l-.81.8c-.05.05-.1.15-.1.3.02.25.02.5 0 .77 0 .14.05.24.1.29l.81.8c.47.48.68 1.22.36 1.9a7.98 7.98 0 0 1-.7 1.21c-.43.61-1.18.81-1.82.63l-1.1-.3c-.07-.02-.18 0-.3.07a5.9 5.9 0 0 1-.67.39c-.13.07-.2.16-.21.22l-.3 1.1c-.16.66-.7 1.2-1.45 1.27a8 8 0 0 1-1.4 0 1.67 1.67 0 0 1-1.46-1.26l-.29-1.1c-.02-.07-.08-.16-.21-.23a5.74 5.74 0 0 1-.67-.39c-.12-.08-.23-.09-.3-.07l-1.1.3c-.64.18-1.4-.02-1.82-.62a8.12 8.12 0 0 1-.7-1.22 1.67 1.67 0 0 1 .36-1.9l.81-.8c.05-.05.1-.15.1-.3a6.21 6.21 0 0 1 0-.77c0-.14-.05-.24-.1-.29l-.81-.8a1.67 1.67 0 0 1-.36-1.9 7.92 7.92 0 0 1 .7-1.21c.43-.61 1.18-.81 1.82-.63l1.1.3c.07.02.18 0 .3-.07.22-.15.44-.27.67-.39.13-.07.2-.16.21-.22l.3-1.1C6 .63 6.54.1 7.3.02 7.53.01 7.76 0 8 0zm-.57 1.52c-.04 0-.1.04-.14.15L7 2.77c-.14.57-.55.97-1 1.2-.17.08-.34.18-.5.28-.41.28-.97.43-1.52.27l-1.1-.3c-.12-.03-.18.02-.2.05-.22.3-.41.64-.57.99-.02.03-.03.1.05.19l.82.8c.41.4.56.96.53 1.46a4.7 4.7 0 0 0 0 .58c.03.5-.12 1.05-.53 1.46l-.82.8c-.08.08-.07.16-.05.2.16.34.35.67.57.98.02.03.08.08.2.05l1.1-.3c.55-.16 1.1-.01 1.52.26l.5.3c.45.22.86.62 1 1.18l.3 1.1c.02.12.1.15.13.15a6.6 6.6 0 0 0 1.14 0c.04 0 .1-.03.14-.14l.29-1.1c.14-.57.55-.97 1-1.2.17-.08.33-.18.5-.29.41-.27.96-.42 1.52-.27l1.1.3c.12.04.18 0 .2-.04.22-.31.41-.64.57-.99.02-.03.03-.1-.05-.19l-.82-.8c-.41-.4-.56-.96-.53-1.46a4.7 4.7 0 0 0 0-.58c-.03-.5.12-1.05.53-1.46l.82-.8c.08-.08.07-.16.06-.2a6.46 6.46 0 0 0-.58-.98c-.02-.03-.08-.08-.2-.05l-1.1.3c-.56.16-1.1.01-1.53-.27a4.44 4.44 0 0 0-.5-.29 1.88 1.88 0 0 1-1-1.18l-.28-1.1c-.03-.12-.1-.15-.14-.16a6.6 6.6 0 0 0-1.14 0zM11 8a3 3 0 1 1-6 0 3 3 0 0 1 6 0zM9.5 8a1.5 1.5 0 1 0-3 0 1.5 1.5 0 0 0 3 0z"/></svg>