<svg xmlns="http://www.w3.org/2000/svg" width="16" height="16"><path d="M7.7 1.07a.75.75 0 0 1 .6 0l7.26 3.25a.75.75 0 0 1 0 1.36L13 6.83v2.8c0 1.02-.81 1.74-1.66 2.17a7.62 7.62 0 0 1-4.16.66.75.75 0 0 1 .14-1.49 6.16 6.16 0 0 0 3.35-.51c.69-.35.83-.69.83-.84V7.5L8.3 8.93a.75.75 0 0 1-.6 0L4 7.28v1.66c.3.1.57.28.81.52.44.43.69 1.05.69 1.8v3a.75.75 0 0 1-.75.74h-3a.75.75 0 0 1-.75-.75v-3c0-.74.25-1.36.69-1.8.23-.23.51-.4.81-.5V6.6L.44 5.68a.75.75 0 0 1 0-1.36zM2.57 5L8 7.43 13.42 5 8 2.57zm-.08 6.25v2.25H4v-2.25c0-.39-.13-.61-.25-.73a.7.7 0 0 0-.5-.2.7.7 0 0 0-.5.2c-.13.12-.25.34-.25.73z"/></svg>