<svg xmlns="http://www.w3.org/2000/svg" width="16" height="16"><path d="M5.43 2.3A4.5 4.5 0 0 0 3.5 6c0 1.6.83 3 2.09 3.8.52.33.93.92.9 1.64v.01l-.16 3.34a.75.75 0 1 1-1.5-.08l.16-3.33c0-.08-.05-.21-.2-.31A6 6 0 0 1 2 6a6 6 0 0 1 2.57-4.92 1.48 1.48 0 0 1 1.67-.04c.46.3.76.83.76 1.42v2.82c0 .08.04.16.11.2l.75.52a.25.25 0 0 0 .28 0l.75-.51a.25.25 0 0 0 .11-.2V2.45c0-.6.3-1.12.76-1.42a1.48 1.48 0 0 1 1.67.04A6 6 0 0 1 14 6a6 6 0 0 1-2.79 5.07c-.15.1-.2.23-.2.31l.16 3.33a.75.75 0 0 1-1.1.72.75.75 0 0 1-.4-.64l-.16-3.35c-.03-.72.38-1.31.9-1.64A4.5 4.5 0 0 0 12.5 6a4.5 4.5 0 0 0-1.93-3.7c-.03.02-.07.07-.07.16v2.82a1.75 1.75 0 0 1-.77 1.45l-.75.51a1.75 1.75 0 0 1-1.96 0l-.75-.51a1.75 1.75 0 0 1-.77-1.45V2.46c0-.09-.04-.14-.07-.16z"/></svg>