<svg xmlns="http://www.w3.org/2000/svg" width="16" height="16"><path d="M6.71 10H2.33l-.87 2.5A.75.75 0 0 1 .04 12l3.4-9.69a1.22 1.22 0 0 1 2.3.02l3.22 9.68a.75.75 0 0 1-1.42.48zm3.13-4.36C10.53 4.37 11.87 4 13 4c1.5 0 3 .94 3 2.6v5.65a.75.75 0 0 1-1.45.28c-.56.29-1.25.47-2.05.47a3.2 3.2 0 0 1-2.08-.7 2.61 2.61 0 0 1-.92-2.05c0-.7.27-1.41.89-1.94.61-.53 1.49-.81 2.61-.81h1.5v-.9c0-.54-.5-1.1-1.5-1.1-.87 0-1.53.28-1.84.86a.75.75 0 1 1-1.32-.72zM6.21 8.5L4.57 3.6 2.86 8.5zm8.29.5H13c-.88 0-1.38.22-1.64.44-.25.22-.36.5-.36.81 0 .4.15.7.39.9.25.2.63.35 1.11.35.73 0 1.26-.2 1.59-.45.35-.26.41-.5.41-.55z"/></svg>